<svg width="304" height="329" viewBox="0 0 304 329" fill="none" xmlns="http://www.w3.org/2000/svg">
<g clip-path="url(#clip0_248_165)">
<path d="M235.096 110.171C235.096 110.171 257.99 106.578 263.217 69.753C269.741 23.8432 234.427 12.7191 221.36 8.80239C208.292 4.88573 173.283 12.7191 164.126 33.2513C154.968 53.7835 157.257 57.3771 157.906 74.3157C157.906 74.3157 193.563 108.536 235.096 110.171V110.171Z" stroke="#FEFEFE" stroke-width="4" stroke-miterlimit="10"/>
<path d="M183.19 90.8505C156.265 74.5176 158.027 50.6946 168.38 34.2204C178.733 17.7461 199.783 7.83333 219.395 14.3342C235.299 19.6237 256.997 40.0752 249.156 68.4407C241.316 89.296 212.851 108.859 183.19 90.8505Z" fill="#FEFEFE" stroke="#FEFEFE" stroke-width="4" stroke-miterlimit="10"/>
<path d="M157.906 74.3157C154.968 76.9201 156.407 79.4841 154.968 78.293C153.53 77.1018 149.68 76.375 142.488 75.305C135.296 74.235 125.692 73.2659 121.478 71.4691C117.264 69.6723 112.24 60.1027 110.801 59.7393C109.363 59.3759 102.272 53.1576 101.928 52.5722C101.583 51.9867 103.001 36.6632 100.003 35.4721C97.0045 34.2809 75.7518 48.0296 75.5087 48.9785C75.2656 49.9274 71.9024 51.3608 72.5102 52.8144C73.118 54.268 73.1991 59.3153 72.4292 58.9923C71.6593 58.6692 65.7839 58.7904 66.7362 60.1027C67.6884 61.4149 76.2178 70.1568 77.17 70.3789C78.1222 70.6009 84.0179 78.2728 84.727 79.1005C85.4361 79.9283 97.3286 96.0795 100.57 98.482C103.812 100.884 128.063 108.052 129.623 108.415C131.183 108.778 110.903 150.408 109.768 152.972C108.411 156.061 107.033 157.555 101.644 160.038C96.2548 162.521 73.037 171.627 69.5118 175.644C65.9865 179.662 48.6238 201.486 44.5921 203.485C40.5603 205.484 10.6162 201.729 6.3211 208.754C2.02599 215.78 1.27638 218.546 2.04625 222.059C2.81613 225.572 13.1284 238.876 21.435 243.136C29.7416 247.396 39.3042 258.197 48.6238 257.188C57.9434 256.178 61.2052 250.424 62.2182 248.163C63.2312 245.902 65.7434 235.868 66.9995 235.868C68.2556 235.868 74.05 229.589 76.3191 228.095C78.5882 226.601 96.3764 211.338 99.3749 210.349C102.373 209.36 129.684 199.084 130.555 199.952C131.426 200.82 135.397 203.041 135.397 204.293C135.397 205.544 134.526 211.338 134.161 212.348C133.796 213.357 123.322 227.55 122.856 230.175C121.235 239.341 119.756 250.848 120.121 256.421C120.486 261.993 125.206 272.148 124.092 273.5C122.978 274.853 120.992 281.556 120.607 282.787C120.222 284.019 115.016 290.459 113.395 293.548C111.774 296.637 110.417 303.077 109.545 304.45C108.674 305.823 106.81 315.837 109.424 318.683C112.037 321.53 118.358 328.717 126.199 327.97C134.04 327.223 167.691 318.441 168.927 305.682C170.163 292.922 170.426 288.36 169.677 286.866C168.927 285.372 166.192 280.668 166.82 279.436C167.448 278.204 166.192 273.743 166.314 271.885C166.435 270.028 167.306 255.552 171.399 247.881C175.491 240.209 192.084 221.312 193.219 220.747C194.353 220.181 193.604 217.193 196.987 215.921C200.371 214.649 208.414 211.702 210.521 197.59C212.628 183.478 212.202 177.784 212.628 175.463C213.053 173.141 214.107 171.667 214.958 169.567C215.809 167.468 219.658 158.019 221.887 158.585C224.115 159.15 249.784 169.991 253.148 170.274C256.511 170.557 261.231 186.122 260.117 190.302C259.003 194.481 259.894 208.653 260.279 209.764C260.664 210.874 263.703 201.426 271.746 210.491C274.542 213.64 303.088 204.494 300.009 199.488C296.929 194.481 292.756 191.695 290.527 189.756C288.299 187.818 288.299 185.315 287.184 180.57C286.07 175.826 282.443 156.646 279.101 154.143C275.758 151.64 257.341 134.963 252.864 132.177C248.387 129.391 237.507 122.991 236.96 121.053C236.413 119.115 233.05 117.439 234.448 115.764C235.846 114.088 235.055 110.192 235.055 110.192" stroke="#FEFEFE" stroke-width="4" stroke-miterlimit="10"/>
<path d="M66.7564 60.1228C66.7564 60.1228 56.829 51.8453 61.2254 47.7873C65.6218 43.7294 72.5507 52.7942 72.5102 52.8346" stroke="#FEFEFE" stroke-width="4" stroke-miterlimit="10"/>
<path d="M75.529 48.9987C75.1643 45.183 66.7767 33.4733 69.7346 31.3333C72.6926 29.1933 72.7939 30.4248 73.9284 30.768C75.063 31.1112 74.3336 30.122 75.5492 30.1018C76.7648 30.0816 77.089 29.8797 77.8791 30.1018C78.6693 30.3239 79.9051 28.5069 81.2625 28.4059C82.6199 28.305 83.4101 29.3144 83.7545 28.4059C84.0989 27.4974 85.2335 25.3574 86.1249 24.9132C87.0163 24.4691 90.6429 21.4609 98.3416 35.4115" stroke="#FEFEFE" stroke-width="4" stroke-miterlimit="10"/>
<path d="M73.9081 30.7681C73.9081 30.7681 81.3233 35.4721 83.2074 43.5881" stroke="#FEFEFE" stroke-width="4" stroke-miterlimit="10"/>
<path d="M77.8588 30.1018C77.8588 30.1018 87.0771 34.9674 88.7384 40.2569" stroke="#FEFEFE" stroke-width="4" stroke-miterlimit="10"/>
<path d="M83.7343 28.4059C83.7343 28.4059 91.433 31.7573 94.1276 36.6632" stroke="#FEFEFE" stroke-width="4" stroke-miterlimit="10"/>
<path d="M260.32 209.723C260.32 209.723 260.38 222.039 266.114 222.382C271.847 222.725 272.232 213.519 271.787 210.43" stroke="#FEFEFE" stroke-width="4" stroke-miterlimit="10"/>
<path d="M275.879 211.015C275.879 211.015 280.336 226.379 285.705 225.511C289.068 224.966 289.555 223.553 289.514 222.665C289.494 222.18 289.636 221.675 290 221.352C290.77 220.706 291.925 219.616 291.986 218.889C292.047 218.122 295.977 217.86 296.484 216.386C296.99 214.912 299.279 217.718 301.285 216.063C303.291 214.407 304.182 210.793 300.292 200.719" stroke="#FEFEFE" stroke-width="4" stroke-miterlimit="10"/>
<path d="M285.381 208.916C286.921 212.025 289.514 222.664 289.514 222.664" stroke="#FEFEFE" stroke-width="4" stroke-miterlimit="10"/>
<path d="M291.986 218.889C291.986 218.889 292.229 208.896 290.973 206.917" stroke="#FEFEFE" stroke-width="4" stroke-miterlimit="10"/>
<path d="M296.625 215.78C296.625 215.78 298.044 210.753 296.038 204.817" stroke="#FEFEFE" stroke-width="4" stroke-miterlimit="10"/>
<path d="M193.259 220.706C205.901 219.798 234.144 219.293 256.734 174.635C256.734 174.635 273.083 164.359 283.578 164.742" stroke="#FEFEFE" stroke-width="4" stroke-miterlimit="10"/>
<path d="M269.882 146.229C273.711 138.073 304.405 68.259 302.096 60.3651C299.786 52.4712 277.804 28.7693 241.498 14.7582C205.192 0.747007 193.178 0.484551 191.132 1.25173C189.086 2.01891 176.302 15.8484 174.397 20.7947" stroke="#FEFEFE" stroke-width="4" stroke-miterlimit="10"/>
<path d="M157.176 53.4807C155.576 56.5292 147.492 76.0923 147.492 76.0923" stroke="#FEFEFE" stroke-width="4" stroke-miterlimit="10"/>
<path d="M101.685 160.058C109.971 166.882 123.626 179.299 121.337 202.516" stroke="#FEFEFE" stroke-width="4" stroke-miterlimit="10"/>
<path d="M109.788 152.992C114.914 157.414 138.274 169.749 130.555 199.952" stroke="#FEFEFE" stroke-width="4" stroke-miterlimit="10"/>
<path d="M77.8588 170.577C82.7009 173.484 102.191 180.55 103.386 208.916" stroke="#FEFEFE" stroke-width="4" stroke-miterlimit="10"/>
<path d="M66.3107 179.521C71.9632 182.125 83.1061 188.707 86.0033 191.997C88.9005 195.288 93.6008 206.634 94.1478 212.893" stroke="#FEFEFE" stroke-width="4" stroke-miterlimit="10"/>
<path d="M52.1693 196.217C57.5179 197.771 63.1502 202.496 66.3107 206.917C69.4713 211.338 76.5825 220.565 76.3394 228.095" stroke="#FEFEFE" stroke-width="4" stroke-miterlimit="10"/>
<path d="M40.5604 204.111C44.6123 203.505 55.7148 212.388 60.1112 218.889C66.3715 228.156 67.6681 236.655 67.0401 235.868" stroke="#FEFEFE" stroke-width="4" stroke-miterlimit="10"/>
<path d="M6.36163 208.795C13.7362 210.531 31.9094 214.508 37.2783 218.909C42.6471 223.311 59.0171 237.887 60.1314 251.575" stroke="#FEFEFE" stroke-width="4" stroke-miterlimit="10"/>
<path d="M1.86389 218.889C8.34706 220.403 26.115 223.048 31.0584 228.095C36.0018 233.143 49.2923 244.489 52.149 256.521" stroke="#FEFEFE" stroke-width="4" stroke-miterlimit="10"/>
<path d="M135.417 204.293C141.779 200.235 168.441 176.411 197.028 215.901" stroke="#FEFEFE" stroke-width="4" stroke-miterlimit="10"/>
<path d="M134.161 212.328C145.061 211.762 167.914 199.992 186.432 228.095" stroke="#FEFEFE" stroke-width="4" stroke-miterlimit="10"/>
<path d="M126.888 225.552C131.021 229.872 145.041 245.074 174.377 243.237" stroke="#FEFEFE" stroke-width="4" stroke-miterlimit="10"/>
<path d="M121.924 235.929C129.38 241.804 144.818 256.017 169.312 253.231" stroke="#FEFEFE" stroke-width="4" stroke-miterlimit="10"/>
<path d="M124.112 273.48C130.21 277.619 135.154 286.664 143.42 283.797C151.686 280.93 162.424 276.024 166.334 271.885" stroke="#FEFEFE" stroke-width="4" stroke-miterlimit="10"/>
<path d="M120.628 282.767C124.821 287.088 133.918 292.438 139.287 292.438C144.656 292.438 160.924 287.411 166.84 279.436" stroke="#FEFEFE" stroke-width="4" stroke-miterlimit="10"/>
<path d="M108.492 308.589C111.977 311.88 115.319 320.823 126.888 319.188C138.456 317.553 152.658 317.29 169.717 297.142" stroke="#FEFEFE" stroke-width="4" stroke-miterlimit="10"/>
<path d="M101.928 52.5923C97.1057 57.2964 84.2002 71.1259 77.2105 70.4192" stroke="#FEFEFE" stroke-width="4" stroke-miterlimit="10"/>
<path d="M110.801 59.7595C102.718 66.4824 95.3026 76.1933 84.7472 79.1409" stroke="#FEFEFE" stroke-width="4" stroke-miterlimit="10"/>
<path d="M116.778 67.2496C113.172 73.488 113.678 80.0898 110.801 82.0885C107.925 84.0872 94.4922 91.7388 94.1276 91.2745" stroke="#FEFEFE" stroke-width="4" stroke-miterlimit="10"/>
<path d="M126.888 72.9631C126.402 76.476 123.038 82.4721 121.904 85.6821C120.769 88.8922 108.228 100.662 103.386 99.8952" stroke="#FEFEFE" stroke-width="4" stroke-miterlimit="10"/>
<path d="M142.488 75.305C136.957 77.9699 124.659 92.1628 126.888 107.648" stroke="#FEFEFE" stroke-width="4" stroke-miterlimit="10"/>
<path d="M154.968 78.293C149.944 82.3711 136.045 95.918 129.643 108.435" stroke="#FEFEFE" stroke-width="4" stroke-miterlimit="10"/>
<path d="M237.001 121.013C232.057 125.596 222.332 142.918 221.927 158.564" stroke="#FEFEFE" stroke-width="4" stroke-miterlimit="10"/>
<path d="M250.818 133.893C246.989 136.336 244.051 140.233 242.086 143.907C240.12 147.582 235.339 159.13 235.157 163.733" stroke="#FEFEFE" stroke-width="4" stroke-miterlimit="10"/>
<path d="M275.089 150.751C269.275 152.467 265.607 154.91 262.427 156.848C259.246 158.787 250.96 165.146 250.818 168.578" stroke="#FEFEFE" stroke-width="4" stroke-miterlimit="10"/>
<path d="M260.158 190.261C264.898 186.405 280.64 178.814 287.225 180.53" stroke="#FEFEFE" stroke-width="4" stroke-miterlimit="10"/>
<path d="M290.568 189.696C287.427 190.786 264.169 199.427 259.611 196.197" stroke="#FEFEFE" stroke-width="4" stroke-miterlimit="10"/>
<path d="M118.865 133.893C126.098 144.149 163.032 191.271 212.668 175.442" stroke="#FEFEFE" stroke-width="4" stroke-miterlimit="10"/>
<path d="M115.137 141.747C118.034 146.835 150.207 192.28 212.668 183.356" stroke="#FEFEFE" stroke-width="4" stroke-miterlimit="10"/>
<path d="M150.632 94.5653C144.696 96.3419 127.03 129.29 134.161 133.893C141.293 138.497 181.488 163.753 186.432 158.564C191.375 153.376 206.266 122.79 203.288 119.519C200.31 116.248 157.582 92.4858 150.632 94.5653V94.5653Z" stroke="#FEFEFE" stroke-width="4" stroke-miterlimit="10"/>
<path d="M183.028 116.531C186.452 117.137 189.288 122.184 187.789 125.152C186.29 128.119 181.529 132.581 178.551 130.199C175.572 127.817 171.095 124.304 173.182 121.013C175.269 117.722 177.943 115.643 183.008 116.531H183.028Z" stroke="#FEFEFE" stroke-width="4" stroke-miterlimit="10"/>
<path d="M174.377 133.893C177.923 134.237 180.03 139.324 178.247 141.747C176.464 144.17 172.574 147.137 170.507 144.755C168.441 142.373 166.273 143.968 168.097 139.768C169.92 135.569 169.616 133.449 174.397 133.893H174.377Z" stroke="#FEFEFE" stroke-width="4" stroke-miterlimit="10"/>
<path d="M147.492 105.548C146.763 106.941 147.269 110.293 152.334 112.089C157.399 113.886 163.275 115.663 163.903 113.281C164.531 110.898 159.648 108.9 157.176 107.668C154.705 106.436 149.214 102.298 147.492 105.548V105.548Z" stroke="#FEFEFE" stroke-width="4" stroke-miterlimit="10"/>
<path d="M142.306 116.329C140.989 118.61 142.934 119.943 148.363 122.386C153.793 124.829 155.454 125.616 157.176 123.597C158.899 121.578 152.8 118.126 149.498 116.329C144.392 113.543 142.326 116.329 142.326 116.329H142.306Z" stroke="#FEFEFE" stroke-width="4" stroke-miterlimit="10"/>
<path d="M98.9089 56.4687C97.7743 57.7608 96.5587 58.9923 95.3026 60.1633C94.6948 60.7285 94.0668 61.2938 93.4185 61.8188C93.0943 62.0812 92.7701 62.3639 92.446 62.6263C92.2636 62.7676 92.0813 62.909 91.899 63.0503C91.433 63.4339 92.9525 62.2629 92.1421 62.8484C89.3867 64.9077 86.4693 66.7247 83.3695 68.259C80.9991 69.43 80.1482 72.9833 81.5461 75.1637C83.1264 77.5864 85.9223 78.2324 88.475 76.9807C95.1 73.7101 101.137 69.107 106.04 63.6156C107.803 61.6371 108.147 58.4068 106.04 56.4687C104.116 54.7122 100.753 54.369 98.8684 56.4687H98.9089Z" fill="#FEFEFE"/>
<path d="M8.8536 230.861C14.81 234.939 19.8547 239.765 25.1223 244.65C30.3899 249.536 36.326 254.119 43.3967 256.542C47.6311 257.995 51.2981 252.766 49.11 249.132C46.6789 245.094 44.1261 241.158 41.391 237.302C38.6559 233.445 36.0829 229.186 32.5172 226.299C28.9514 223.411 23.6636 222.241 19.2064 220.767C14.344 219.152 9.50191 217.96 4.39642 219.152C1.60055 219.798 0.324174 222.765 0.850932 225.37C2.77562 234.677 12.5409 239.563 19.8142 244.287C24.0688 247.053 28.3436 249.839 32.5982 252.605C36.8528 255.371 41.2897 257.955 46.2129 259.469C52.4529 261.387 55.1272 251.636 48.9074 249.738C44.9568 248.527 41.4721 246.326 38.0076 244.085C34.0772 241.541 30.167 238.997 26.2569 236.454C22.7519 234.172 19.1051 232.012 15.742 229.529C13.2095 227.651 11.1835 225.592 10.5959 222.685L7.05047 228.903C10.5554 228.075 14.3238 229.791 17.6059 230.881C20.6246 231.891 24.6361 232.476 26.8647 234.879C29.3364 237.544 31.4231 240.713 33.4897 243.701C35.8803 247.134 38.1494 250.646 40.297 254.24L46.0103 246.831C40.1349 244.812 35.313 240.471 30.7748 236.211C25.3857 231.124 19.9965 226.359 13.8578 222.16C11.6089 220.625 8.2458 221.736 6.92891 223.977C5.47019 226.48 6.48319 229.327 8.7523 230.881L8.8536 230.861Z" fill="#FEFEFE"/>
<path d="M108.006 313.253L108.715 316.564C108.816 317.048 109.241 317.533 109.647 317.775C110.072 318.037 110.72 318.138 111.207 317.977C111.693 317.815 112.179 317.512 112.422 317.048C112.686 316.543 112.746 316.039 112.625 315.494L111.916 312.183C111.814 311.698 111.389 311.213 110.984 310.971C110.558 310.709 109.91 310.608 109.424 310.769C108.938 310.931 108.451 311.234 108.208 311.698C107.945 312.203 107.884 312.707 108.006 313.253Z" fill="#FEFEFE"/>
<path d="M110.072 319.128C110.295 319.249 110.498 319.37 110.7 319.531L110.092 319.067C110.477 319.39 110.801 319.753 111.126 320.157L110.66 319.552C111.673 320.864 112.645 322.176 113.921 323.266C115.198 324.356 116.596 325.285 118.136 325.951C118.905 326.295 119.615 326.497 120.486 326.254C121.195 326.052 121.965 325.527 122.309 324.861C122.674 324.155 122.876 323.307 122.613 322.519C122.39 321.813 121.924 321.025 121.215 320.702C120.121 320.218 119.088 319.632 118.136 318.905L118.743 319.37C117.771 318.603 116.879 317.734 116.13 316.765L116.596 317.371C115.603 316.079 114.691 314.666 113.172 313.899C112.443 313.535 111.632 313.374 110.822 313.596C110.113 313.798 109.343 314.323 108.998 314.989C108.269 316.362 108.573 318.381 110.092 319.128H110.072Z" fill="#FEFEFE"/>
<path d="M119.108 324.861C123.748 325.851 128.772 325.083 133.391 324.276C138.294 323.408 143.055 321.954 147.634 320.036C155.758 316.624 165.463 311.335 169.677 303.219C171.48 299.766 166.233 296.698 164.429 300.17C160.843 307.075 152.192 311.577 145.284 314.504C141.455 316.119 137.423 317.331 133.351 318.159C129.279 318.986 124.7 319.895 120.729 319.047C116.758 318.199 115.279 324.074 119.108 324.881V324.861Z" fill="#FEFEFE"/>
<path d="M166.618 297.202C166.516 297.606 166.395 298.01 166.233 298.393L166.435 297.909C166.192 298.474 165.888 299.019 165.503 299.504L165.827 299.1C165.827 299.1 165.746 299.201 165.706 299.262C165.503 299.443 165.361 299.665 165.28 299.908C165.159 300.15 165.098 300.412 165.098 300.695C165.098 301.2 165.321 301.785 165.686 302.128C166.05 302.472 166.577 302.734 167.124 302.714C167.631 302.694 168.218 302.532 168.562 302.128C169.028 301.563 169.454 300.998 169.778 300.332C170.102 299.665 170.366 298.999 170.528 298.293C170.649 297.768 170.609 297.202 170.325 296.738C170.082 296.314 169.596 295.91 169.109 295.809C168.583 295.688 168.015 295.708 167.549 296.011C167.124 296.294 166.739 296.698 166.618 297.223V297.202Z" fill="#FEFEFE"/>
<path d="M168.238 301.422C168.441 301.22 168.623 301.018 168.806 300.796C169.069 300.453 169.353 300.109 169.555 299.726C169.758 299.342 169.94 298.959 170.082 298.555C170.183 298.292 170.264 298.01 170.325 297.747C170.447 297.222 170.406 296.657 170.123 296.193C170.001 295.951 169.819 295.769 169.596 295.627C169.393 295.446 169.17 295.325 168.907 295.264C168.38 295.143 167.813 295.163 167.347 295.466C166.921 295.749 166.537 296.152 166.415 296.677C166.334 297 166.233 297.323 166.111 297.626L166.314 297.142C166.131 297.566 165.888 297.969 165.605 298.353L165.929 297.949C165.746 298.171 165.564 298.393 165.361 298.575C164.997 298.918 164.774 299.504 164.774 300.009C164.774 300.291 164.814 300.554 164.956 300.796C165.037 301.038 165.179 301.26 165.382 301.442C165.767 301.785 166.273 302.048 166.82 302.027C167.367 302.007 167.853 301.826 168.259 301.442L168.238 301.422Z" fill="#FEFEFE"/>
<path d="M169.069 296.314L169.778 295.103C169.859 294.982 169.9 294.86 169.9 294.719C169.92 294.578 169.92 294.457 169.9 294.315C169.859 294.174 169.798 294.073 169.717 293.972C169.636 293.871 169.555 293.77 169.434 293.71C169.19 293.588 168.907 293.528 168.643 293.609C168.38 293.689 168.177 293.831 168.036 294.073L167.327 295.284C167.246 295.405 167.205 295.527 167.205 295.668C167.185 295.809 167.185 295.93 167.205 296.072C167.246 296.213 167.306 296.314 167.387 296.415C167.468 296.516 167.549 296.617 167.671 296.677C167.914 296.799 168.198 296.859 168.461 296.778C168.725 296.698 168.927 296.556 169.069 296.314Z" fill="#FEFEFE"/>
<path d="M166.638 305.177C161.208 311.577 154.279 316.119 146.277 318.663C141.941 320.036 137.524 321.146 133.148 322.338C129.238 323.408 124.193 325.144 120.709 322.116C118.764 320.399 115.887 323.246 117.852 324.962C121.134 327.829 125.247 328.192 129.4 327.425C134.85 326.416 140.3 324.639 145.628 323.064C154.948 320.319 163.173 315.453 169.494 308.003C171.176 306.025 168.319 303.158 166.638 305.157V305.177Z" fill="#FEFEFE"/>
<path d="M5.75382 210.995L3.40367 216.648C3.01874 217.577 3.82913 218.99 4.82187 219.131C25.4262 222.241 43.4575 235.929 51.9262 254.906C52.2301 255.573 53.0202 255.855 53.6685 255.916C58.8348 256.299 61.4078 250.101 57.6192 246.649C56.6467 245.761 55.1475 245.922 54.4384 247.053C52.6555 249.879 50.3864 252.161 47.5703 253.957C46.3142 254.765 46.1926 256.683 47.5703 257.45C49.6773 258.621 52.0275 258.621 54.0332 257.228C55.7553 256.017 54.7423 252.605 52.4732 253.534C51.0753 254.099 49.6976 254.664 48.2996 255.229C46.3952 255.997 46.3344 259.449 48.8467 259.186C53.0405 258.762 56.748 257.127 59.7668 254.159C61.6307 252.342 58.7538 249.476 56.9101 251.313C54.7018 253.493 51.9667 254.846 48.8669 255.149L49.4139 259.106C50.8119 258.54 52.1895 257.975 53.5875 257.41L52.0275 253.715C51.2171 254.28 50.5688 254.462 49.6571 253.937V257.43C53.0607 255.25 55.8161 252.484 57.9636 249.072L54.7828 249.476C56.0389 250.626 55.2691 251.959 53.6888 251.858L55.4311 252.867C46.5978 233.062 27.4117 218.485 5.9159 215.235L7.3341 217.718L9.68425 212.065C10.677 209.663 6.76682 208.613 5.77408 210.995H5.75382Z" fill="#FEFEFE"/>
<path d="M58.9563 248.002C57.7812 240.855 51.9667 234.536 47.469 229.145C42.6674 223.391 36.8933 218.829 30.0049 215.76C26.662 214.266 23.2584 213.034 19.7737 211.924C16.5321 210.894 13.0271 209.481 9.60317 209.32C5.91587 209.138 2.53246 211.015 1.27635 214.569C0.810372 215.901 0.688812 217.355 0.668552 218.748C0.648292 219.899 0.972451 221.514 0.445693 222.604C-1.82342 227.268 5.16625 231.366 7.43536 226.682C8.65096 224.199 8.75226 221.796 8.77252 219.091C8.77252 218.546 8.77252 217.981 8.8333 217.436C8.87382 217.032 9.31954 217.173 8.56992 217.436C9.42084 217.113 10.6364 217.637 11.4468 217.86C17.1399 219.434 22.9545 221.171 28.2423 223.835C33.5301 226.5 37.9063 230.256 41.7354 234.859C45.5645 239.462 50.204 244.368 51.136 250.142C51.4804 252.302 54.175 253.493 56.1199 252.968C58.4093 252.342 59.3007 250.162 58.9563 248.002Z" fill="#FEFEFE"/>
<path d="M8.46863 223.371C8.32681 222.907 8.20525 222.422 8.14447 221.938L8.28629 223.008C8.20525 222.281 8.20525 221.534 8.28629 220.807L8.14447 221.877C8.24577 221.15 8.44837 220.444 8.732 219.757L8.32681 220.726C8.59019 220.101 8.9346 219.535 9.3398 218.99L8.71174 219.798C8.8333 219.656 8.9346 219.515 9.05616 219.374L2.14753 216.527C2.00571 217.9 1.86389 219.293 1.72207 220.666C1.56 222.2 1.29662 223.755 1.72207 225.289C2.32987 227.369 3.95066 228.54 5.67276 229.67C6.86809 230.457 8.08369 231.265 9.27902 232.052C11.0416 233.223 13.8375 232.456 14.8302 230.599C15.904 228.58 15.276 226.319 13.3715 225.067C11.7913 224.017 10.1502 223.028 8.61044 221.897L9.42084 222.523C9.21824 222.362 9.0359 222.2 8.85356 221.998L9.48162 222.806C9.36006 222.644 9.27902 222.503 9.17772 222.321L9.58292 223.29C9.52214 223.109 9.48162 222.947 9.4411 222.745L9.58292 223.815C9.46136 222.665 9.72474 221.433 9.8463 220.282C9.98812 219.01 10.1097 217.759 10.2515 216.487C10.3123 215.861 10.0084 214.993 9.70448 214.448C9.25876 213.68 8.56993 213.135 7.75953 212.792C6.36159 212.207 4.39638 212.409 3.34287 213.62C0.547 216.85 -0.648335 221.332 0.66856 225.471C1.31688 227.47 3.50495 228.984 5.6525 228.297C7.67849 227.651 9.17772 225.491 8.48888 223.331L8.46863 223.371Z" fill="#FEFEFE"/>
<path d="M283.598 181.782L277.925 182.811C276.041 183.155 274.076 183.397 272.232 183.881C270.267 184.406 268.768 185.557 267.005 186.445C266.843 186.526 265.688 187.011 266.499 186.708C266.114 186.869 265.709 187.011 265.304 187.132C264.453 187.415 263.581 187.677 262.71 187.919C260.684 188.505 259.205 190.786 259.874 192.886C260.542 194.985 262.67 196.338 264.858 195.712C266.701 195.167 268.525 194.582 270.288 193.794C271.057 193.451 271.807 193.047 272.516 192.583C272.942 192.32 273.347 192.058 273.792 191.816C273.104 192.179 274.177 191.695 274.38 191.634C276.163 191.149 278.047 190.927 279.87 190.584L285.746 189.514C287.833 189.131 289.21 186.486 288.582 184.548C287.853 182.307 285.847 181.317 283.598 181.721V181.782Z" fill="#FEFEFE"/>
<path d="M262.102 196.217C264.615 196.479 267.127 196.358 269.578 195.853C272.03 195.349 274.117 194.36 276.386 193.552C278.797 192.684 281.208 192.765 283.679 192.32C285.847 191.937 287.65 190.927 288.987 189.171C289.656 188.303 289.129 186.91 288.258 186.405C287.225 185.799 286.151 186.264 285.482 187.132C284.469 188.464 282.241 188.485 280.742 188.606C278.553 188.787 276.527 189.171 274.481 189.958C272.435 190.746 270.591 191.533 268.505 191.957C266.418 192.381 264.23 192.401 262.102 192.179C261.008 192.058 260.076 193.189 260.076 194.198C260.076 195.389 261.008 196.096 262.102 196.217Z" fill="#FEFEFE"/>
<path d="M285.969 180.207C282.727 180.328 279.485 180.974 276.467 182.165C275.96 182.367 275.535 182.61 275.251 183.094C274.988 183.518 274.886 184.164 275.049 184.649C275.352 185.597 276.487 186.466 277.541 186.062C278.938 185.517 280.377 185.073 281.856 184.75C282.221 184.669 282.565 184.608 282.93 184.548C283.112 184.507 283.315 184.487 283.517 184.447C283.598 184.447 284.145 184.326 283.639 184.447C284.388 184.305 285.199 184.285 285.969 184.265C287.022 184.225 288.035 183.377 287.995 182.246C287.954 181.196 287.103 180.187 285.969 180.227V180.207Z" fill="#FEFEFE"/>
<path d="M261.434 171.93C262.062 171.425 262.69 170.92 263.318 170.415C263.642 170.173 263.966 169.931 264.27 169.668C264.108 169.81 263.419 170.314 263.966 169.911C264.129 169.789 264.291 169.668 264.453 169.547C265.77 168.558 267.147 167.609 268.565 166.781C269.254 166.378 269.963 165.994 270.672 165.651C270.855 165.57 271.037 165.469 271.219 165.388C271.382 165.328 272.05 165.025 271.301 165.348C270.551 165.671 271.24 165.388 271.402 165.328C271.604 165.247 271.787 165.186 271.989 165.106C273.934 164.419 275.859 163.814 277.763 162.966C278.857 162.481 279.789 161.027 280.093 159.957C280.417 158.746 280.276 157.131 279.587 156.061C278.898 154.991 277.844 154.042 276.568 153.739C275.15 153.416 273.975 153.679 272.658 154.244C272.861 154.163 273.63 153.86 273.002 154.103C272.8 154.183 272.617 154.244 272.415 154.325C271.969 154.486 271.523 154.628 271.078 154.769C270.288 155.031 269.497 155.274 268.728 155.576C266.823 156.303 264.979 157.151 263.217 158.201C260.056 160.099 257.159 162.461 254.302 164.783C253.35 165.55 252.823 167.185 252.823 168.356C252.823 169.588 253.37 171.082 254.302 171.93C255.234 172.777 256.531 173.464 257.888 173.403C259.307 173.343 260.38 172.818 261.474 171.93H261.434Z" fill="#FEFEFE"/>
<path d="M273.326 151.922C266.215 154.385 259.712 158.484 254.627 164.056C252.844 166.014 252.54 169.285 254.627 171.203C256.572 172.979 259.894 173.282 261.799 171.203C263.399 169.446 265.141 167.851 267.005 166.398L265.972 167.185C268.646 165.146 271.564 163.45 274.684 162.118L273.468 162.622C274.299 162.279 275.15 161.956 276.021 161.653C278.513 160.785 280.438 158.161 279.567 155.435C278.776 152.972 276.021 150.994 273.326 151.902V151.922Z" fill="#FEFEFE"/>
<path d="M255.052 168.76C255.093 168.558 255.153 168.376 255.234 168.195L255.032 168.679C255.153 168.396 255.295 168.134 255.478 167.912L255.153 168.316C255.336 168.073 255.559 167.872 255.781 167.67L255.376 167.993C255.559 167.851 255.741 167.75 255.944 167.649C256.187 167.528 256.369 167.347 256.511 167.125C256.693 166.923 256.815 166.701 256.875 166.438C256.956 166.176 256.977 165.893 256.916 165.631C256.916 165.368 256.815 165.106 256.673 164.884C256.389 164.46 255.984 164.076 255.457 163.955L254.91 163.874C254.546 163.874 254.201 163.975 253.897 164.157C253.512 164.338 253.168 164.621 252.844 164.884C252.641 165.045 252.459 165.247 252.297 165.449C252.033 165.792 251.77 166.115 251.588 166.499C251.405 166.882 251.223 167.286 251.142 167.69C251.061 167.952 251.041 168.235 251.101 168.497C251.101 168.76 251.203 169.022 251.344 169.244C251.466 169.487 251.648 169.668 251.871 169.81C252.074 169.991 252.297 170.113 252.56 170.173C253.087 170.294 253.654 170.274 254.12 169.971C254.546 169.689 254.93 169.285 255.052 168.76Z" fill="#FEFEFE"/>
<path d="M252.742 170.254C255.356 170.254 255.356 166.216 252.742 166.216C250.129 166.216 250.129 170.254 252.742 170.254Z" fill="#FEFEFE"/>
<path d="M267.249 168.719C269.477 167.589 271.807 166.741 274.218 166.115C276.629 165.489 279.404 165.449 281.795 164.399C282.808 163.975 283.031 162.501 282.524 161.633C281.917 160.603 280.762 160.482 279.749 160.906C278.736 161.33 277.378 161.391 276.264 161.552C275.028 161.754 273.813 162.017 272.617 162.34C270.044 163.026 267.552 164.015 265.182 165.207C264.21 165.691 263.926 167.064 264.453 167.972C265.04 168.962 266.236 169.184 267.228 168.699L267.249 168.719Z" fill="#FEFEFE"/>
<path d="M280.093 162.239C282.707 162.239 282.707 158.201 280.093 158.201C277.48 158.201 277.48 162.239 280.093 162.239Z" fill="#FEFEFE"/>
<path d="M280.093 161.593C282.707 161.593 282.707 157.555 280.093 157.555C277.48 157.555 277.48 161.593 280.093 161.593Z" fill="#FEFEFE"/>
<path d="M234.367 123.496C230.335 130.037 226.526 136.841 224.338 144.23C223.305 147.723 222.494 151.599 222.555 155.274C222.636 159.614 227.802 160.947 231.064 162.582C233.475 163.814 236.109 161.795 235.521 159.17C234.853 156.101 236.17 153.033 237.527 150.347C239.148 147.137 240.951 143.988 242.815 140.899C244.537 138.032 247.151 135.064 247.475 131.632C247.799 128.2 245.307 125.152 242.005 124.647C240.647 124.445 239.31 124.788 238.581 126.04C233.678 134.418 229.849 143.423 227.235 152.77C226.668 154.809 228.248 156.424 230.173 156.606C230.517 156.646 230.983 156.869 231.186 157.171C232.685 159.19 235.967 159.13 236.737 156.445C237.932 152.265 239.573 148.268 241.701 144.472C242.754 142.595 243.889 140.778 245.145 139.021C245.732 138.194 246.34 137.386 246.968 136.599C247.414 136.054 248.305 134.58 248.954 134.439H247.333L247.839 134.519C249.46 134.802 251.122 134.075 251.588 132.399C251.993 130.926 251.081 128.967 249.46 128.664C246.057 128.059 244.233 130.34 242.309 132.743C240.566 134.943 238.925 137.225 237.487 139.607C234.63 144.351 232.422 149.5 230.882 154.809L236.433 154.082C234.833 151.902 232.867 150.792 230.153 150.529L233.09 154.365C235.582 145.502 239.168 137.043 243.828 129.088L240.404 130.481C242.916 130.865 239.817 134.237 239.148 135.307C237.446 138.012 235.825 140.758 234.286 143.564C231.348 148.894 228.309 154.527 229.666 160.785L234.123 157.373C232.928 156.768 231.733 156.162 230.537 155.556C229.768 155.173 228.309 154.628 227.904 154.143L228.694 155.475C228.39 154.506 228.755 152.811 228.876 151.801C229.038 150.59 229.281 149.399 229.565 148.207C230.173 145.623 231.024 143.079 232.037 140.637C234.083 135.71 236.818 131.087 239.614 126.565C241.66 123.234 236.413 120.185 234.367 123.516V123.496Z" fill="#FEFEFE"/>
<path d="M224.075 159.21C226.688 159.21 226.688 155.173 224.075 155.173C221.461 155.173 221.461 159.21 224.075 159.21Z" fill="#FEFEFE"/>
<path d="M250.554 134.963C253.168 134.963 253.168 130.926 250.554 130.926C247.941 130.926 247.941 134.963 250.554 134.963Z" fill="#FEFEFE"/>
<path d="M102.232 57.7204C104.845 57.7204 104.845 53.6826 102.232 53.6826C99.618 53.6826 99.618 57.7204 102.232 57.7204Z" fill="#FEFEFE"/>
<path d="M107.661 61.6168C110.275 61.6168 110.275 57.579 107.661 57.579C105.048 57.579 105.048 61.6168 107.661 61.6168Z" fill="#FEFEFE"/>
<path d="M81.1612 73.5081C83.7747 73.5081 83.7747 69.4703 81.1612 69.4703C78.5477 69.4703 78.5477 73.5081 81.1612 73.5081Z" fill="#FEFEFE"/>
<path d="M85.5171 79.363C88.1306 79.363 88.1306 75.3252 85.5171 75.3252C82.9036 75.3252 82.9036 79.363 85.5171 79.363Z" fill="#FEFEFE"/>
<path d="M114.833 74.3157C117.224 76.2942 120.02 77.4248 123.16 77.4248L120.222 73.5889C119.513 76.3144 118.824 79.1207 117.548 81.6645C116.272 84.2083 114.489 86.1464 112.402 87.9635C110.477 89.6391 108.309 91.6379 106 92.7684C103.832 93.8385 102.13 92.1426 100.509 90.6284V94.9085C102.13 93.5154 104.197 92.6069 106.04 91.5773C107.985 90.5073 110.011 89.4978 111.896 88.3067C113.638 87.2165 115.218 85.9446 116.393 84.2689C116.94 83.4815 117.386 82.5528 117.629 81.6241C117.751 81.1194 118.055 80.2513 117.892 79.7667C117.933 79.3629 117.933 79.262 117.913 79.4437C117.102 80.1301 116.981 80.332 117.548 80.0494L116.008 80.4531C115.279 80.2109 114.732 79.8071 114.347 79.2418V79.2014C114.469 79.0601 114.246 79.6456 114.286 79.5446C114.063 80.0494 113.739 80.5137 113.395 80.9377C112.443 82.0885 111.308 83.1181 110.254 84.1477C108.026 86.3483 105.716 88.448 103.346 90.5073C102.11 91.5773 102.252 93.6971 103.346 94.7873C104.582 96.0189 106.405 95.8574 107.641 94.7873C111.207 91.7186 114.975 88.5287 117.973 84.8947C119.594 82.9364 120.769 80.655 120.303 78.0507C119.777 75.1434 116.758 73.3668 114.084 75.0425C112.949 75.7491 112.26 76.8999 111.997 78.2122C111.956 78.3737 111.835 79.7263 111.855 79.686C111.754 80.2311 111.774 80.1907 111.592 80.5137C110.984 81.6847 109.667 82.573 108.37 83.3604C104.339 85.7629 99.8003 87.5597 96.2143 90.6284C94.9987 91.6782 95.0798 93.8586 96.2143 94.9085C99.0102 97.4927 102.191 99.7942 106.223 99.0472C109.707 98.4012 112.787 95.4738 115.421 93.3135C118.055 91.1533 120.546 88.6499 122.269 85.6619C124.132 82.4317 125.125 78.7775 126.057 75.204C126.564 73.3062 125.125 71.3681 123.119 71.3681C121.722 71.3681 120.243 70.9845 119.088 70.0154C117.832 68.9656 116.029 68.7839 114.793 70.0154C113.719 71.0854 113.516 73.2457 114.793 74.2955L114.833 74.3157Z" fill="#FEFEFE"/>
<path d="M141.556 76.0721C138.416 77.8891 136.167 80.8165 134.506 83.9862C132.844 87.1559 131.77 90.4871 129.623 93.2126L134.809 95.3526C134.566 93.253 134.992 91.4562 136.167 89.6997L130.616 87.3578C129.684 93.2934 126.28 98.4617 125.733 104.498H131.811C131.852 103.792 132.074 102.903 131.973 102.197C131.852 101.47 131.183 103.045 131.872 102.621C132.095 102.479 132.318 102.217 132.5 102.035C133.533 100.965 134.404 99.7336 135.235 98.5021C136.714 96.3015 138.254 94.222 140.077 92.2839C143.886 88.2461 148.282 84.8342 152.658 81.4424C154.117 80.3118 153.692 77.4248 152.051 76.6778C149.842 75.6683 147.472 74.7598 145 75.4261C142.772 76.0318 141.374 77.8084 140.097 79.6052C137.646 83.0575 135.802 86.9136 134.526 90.9312C134.019 92.4858 135.113 94.2422 136.653 94.6662C138.294 95.1104 139.895 94.1211 140.401 92.5464C141.313 89.7199 142.549 87.0549 144.129 84.5313C144.717 83.6026 145.466 82.0077 146.439 81.3818C147.127 80.9579 148.282 81.5837 148.991 81.9068L148.384 77.1421C143.643 80.7964 138.882 84.4909 134.891 88.9729C132.885 91.2139 131.223 93.6769 129.522 96.1602C128.772 97.2504 127.739 98.0378 126.928 99.0472C125.733 100.561 125.895 102.661 125.774 104.478C125.672 106.113 127.253 107.506 128.813 107.506C130.575 107.506 131.71 106.113 131.852 104.478C132.358 99.0674 135.681 94.323 136.532 88.9527C136.754 87.4587 136.288 85.9849 134.769 85.3793C133.249 84.7736 131.852 85.3389 130.98 86.6108C129.258 89.1344 128.448 92.2839 128.792 95.3122C128.934 96.5438 129.441 97.5936 130.656 98.0781C131.689 98.4819 133.229 98.4012 133.979 97.4523C136.248 94.5854 137.666 91.3754 139.267 88.1048C140.563 85.46 142.063 82.7749 144.696 81.2607C148.08 79.3024 145.02 74.0734 141.637 76.0318L141.556 76.0721Z" fill="#FEFEFE"/>
<path d="M131.993 103.307V102.883C131.993 102.459 131.912 102.076 131.73 101.712C131.608 101.329 131.406 101.006 131.102 100.743C130.818 100.44 130.494 100.238 130.129 100.117C129.765 99.9355 129.38 99.8346 128.954 99.8548L128.144 99.9557C127.637 100.097 127.192 100.36 126.807 100.743L126.341 101.349C126.057 101.813 125.936 102.338 125.936 102.883V103.307C125.936 103.731 126.017 104.115 126.199 104.478C126.321 104.862 126.523 105.185 126.827 105.447C127.111 105.75 127.435 105.952 127.8 106.073C128.164 106.255 128.549 106.356 128.975 106.335L129.785 106.235C130.291 106.093 130.737 105.831 131.122 105.447L131.588 104.841C131.872 104.377 131.993 103.852 131.993 103.307Z" fill="#FEFEFE"/>
<path d="M51.1765 202.496C56.5252 205.585 61.266 209.744 64.8722 214.75C66.6956 217.274 68.2556 219.959 69.532 222.765C69.8359 223.411 70.0993 224.078 70.3627 224.744C70.4842 225.067 70.5653 225.652 70.7881 225.915C70.8692 226.319 70.93 226.238 70.9705 225.652C71.1933 225.067 71.1326 224.986 70.7881 225.41C70.0993 225.713 69.3902 226.642 68.8229 227.146C68.0125 227.853 67.2224 228.56 66.412 229.286L71.5985 231.427C70.7881 224.905 66.878 219.414 63.0894 214.246C59.3008 209.077 55.1677 204.494 49.7786 201.143L51.1765 204.555L51.2576 204.171L50.4674 205.504L50.1635 205.686H48.5427C49.7381 205.867 50.9132 206.937 51.8856 207.604C52.7771 208.229 53.6482 208.855 54.4992 209.542C56.4644 211.137 58.308 212.832 60.0504 214.67C63.454 218.283 66.2702 222.362 68.5595 226.783C70.3424 230.256 75.5897 227.187 73.8069 223.735C70.8489 218.001 66.8982 212.711 62.2182 208.25C59.9086 206.049 57.3963 204.03 54.7423 202.233C53.3241 201.264 51.8654 200.154 50.1433 199.851C47.9755 199.447 45.7671 200.759 45.2809 202.96C44.9973 204.313 45.4835 205.645 46.6788 206.372C51.1563 209.158 54.7423 213.095 57.8218 217.314C59.3818 219.454 60.9013 221.675 62.2992 223.936C63.6972 226.198 65.1559 228.741 65.5003 231.467C65.8447 234.192 68.5798 235.464 70.6868 233.607C72.2671 232.214 74.05 230.881 75.4884 229.327C77.2105 227.49 77.0687 225.37 76.2381 223.169C74.8806 219.576 73.1383 216.123 70.9907 212.913C66.6754 206.513 60.9621 201.143 54.2763 197.267C50.8929 195.308 47.8134 200.537 51.2171 202.496H51.1765Z" fill="#FEFEFE"/>
<path d="M74.2526 183.134C81.3233 186.991 91.2709 196.156 90.6834 204.777C90.1363 212.55 102.292 212.53 102.839 204.777C103.751 191.634 91.2912 178.592 80.3913 172.677C73.5232 168.942 67.3845 179.399 74.2526 183.134Z" fill="#FEFEFE"/>
<path d="M95.7889 212.409C99.699 212.409 99.699 206.352 95.7889 206.352C91.8787 206.352 91.8787 212.409 95.7889 212.409Z" fill="#FEFEFE"/>
<path d="M100.753 210.107C104.663 210.107 104.663 204.05 100.753 204.05C96.8424 204.05 96.8424 210.107 100.753 210.107Z" fill="#FEFEFE"/>
<path d="M71.9632 180.429C75.8734 180.429 75.8734 174.372 71.9632 174.372C68.053 174.372 68.053 180.429 71.9632 180.429Z" fill="#FEFEFE"/>
<path d="M70.626 181.741C74.5362 181.741 74.5362 175.685 70.626 175.685C66.7159 175.685 66.7159 181.741 70.626 181.741Z" fill="#FEFEFE"/>
<path d="M78.5679 176.795C82.4781 176.795 82.4781 170.738 78.5679 170.738C74.6578 170.738 74.6578 176.795 78.5679 176.795Z" fill="#FEFEFE"/>
<path d="M106.121 162.259C107.317 165.732 109.707 167.629 112.483 169.81C111.592 169.103 112.382 169.749 112.564 169.89C112.868 170.133 113.152 170.395 113.415 170.658C113.962 171.183 114.489 171.768 114.995 172.333C115.238 172.616 115.38 172.798 115.076 172.394C115.319 172.697 115.542 173.02 115.765 173.323C116.211 173.948 116.636 174.615 117.042 175.261C117.811 176.512 118.541 177.805 119.25 179.097C119.594 179.722 119.939 180.348 120.263 180.994C120.405 181.297 120.688 181.984 120.425 181.317C120.567 181.681 120.688 182.064 120.79 182.428C120.85 182.65 121.012 183.68 120.911 182.67C120.952 182.973 120.931 183.296 120.952 183.599C120.992 185.012 121.073 183.013 120.952 183.72C120.85 184.366 120.749 185.012 120.688 185.678C120.465 187.536 120.729 189.595 121.884 191.129C123.444 193.249 126.341 194.521 128.813 192.946C130.92 191.594 132.318 188.303 130.636 186.042C130.15 185.375 130.535 186.304 130.697 186.567C130.737 186.93 130.757 186.97 130.757 186.668C130.757 186.466 130.757 186.264 130.798 186.082C130.798 186.486 130.697 186.809 130.798 186.203C130.899 185.557 131.001 184.911 131.061 184.265C131.223 182.61 130.96 180.853 130.454 179.299C129.441 176.23 127.719 173.323 126.057 170.577C124.396 167.831 122.593 165.287 120.303 163.208C119.716 162.683 119.108 162.198 118.48 161.714C118.095 161.431 117.71 161.128 117.345 160.846C117.67 161.088 117.852 161.27 117.426 160.906C116.92 160.482 116.454 160.058 115.988 159.594C115.522 159.13 115.947 159.412 116.069 159.735C115.968 159.513 115.542 158.403 115.927 159.574C115.076 157.07 112.402 155.173 109.687 156.041C107.195 156.848 105.23 159.574 106.142 162.259H106.121Z" fill="#FEFEFE"/>
<path d="M122.167 194.864C122.167 194.864 122.167 194.965 122.167 195.026L122.309 193.956C122.269 194.299 122.167 194.622 122.046 194.925L122.451 193.956C122.309 194.279 122.127 194.582 121.924 194.864L122.552 194.057C122.41 194.218 122.269 194.38 122.107 194.541L129.015 197.388C128.995 196.661 128.954 195.934 128.934 195.207C128.954 194.642 128.833 194.137 128.59 193.653C128.428 193.148 128.144 192.724 127.759 192.361C127.394 191.957 126.949 191.695 126.462 191.533C125.976 191.271 125.449 191.17 124.902 191.19L123.829 191.331C123.14 191.533 122.552 191.876 122.046 192.361L121.418 193.168C121.053 193.794 120.871 194.481 120.871 195.207C120.891 195.934 120.931 196.661 120.952 197.388L121.094 198.458L121.499 199.427L122.127 200.235C122.491 200.638 122.937 200.901 123.423 201.062C123.748 201.244 124.072 201.345 124.436 201.345C124.801 201.446 125.146 201.446 125.51 201.345C125.875 201.345 126.219 201.244 126.523 201.062C127.03 200.901 127.455 200.618 127.82 200.235C128.245 199.831 128.59 199.346 128.934 198.902C129.076 198.7 129.218 198.498 129.319 198.256C129.522 197.852 129.684 197.428 129.866 197.004C129.907 196.883 129.947 196.782 129.988 196.661C130.028 196.54 130.048 196.419 130.069 196.277C130.15 195.813 130.21 195.329 130.271 194.864C130.292 194.299 130.17 193.794 129.927 193.31C129.765 192.805 129.481 192.381 129.096 192.018C128.732 191.614 128.286 191.351 127.8 191.19C127.313 190.927 126.787 190.826 126.24 190.847L125.166 190.988C124.477 191.19 123.889 191.533 123.383 192.018L122.755 192.825C122.39 193.451 122.208 194.137 122.208 194.864H122.167Z" fill="#FEFEFE"/>
<path d="M127.07 181.62C123.788 174.271 119.392 167.508 114.165 161.371C112.787 159.756 109.829 159.857 108.431 161.371C106.851 163.087 106.972 165.348 108.431 167.084C109.019 167.791 109.606 168.497 110.194 169.204C110.335 169.386 110.477 169.567 110.619 169.749C110.113 169.123 110.619 169.749 110.72 169.89C111.004 170.254 111.267 170.617 111.551 171.001C112.665 172.535 113.739 174.09 114.732 175.705C116.738 178.915 118.52 182.266 120.06 185.719C120.931 187.657 123.91 188.262 125.611 187.172C127.617 185.88 127.982 183.72 127.07 181.64V181.62Z" fill="#FEFEFE"/>
<path d="M106.709 163.591C110.619 163.591 110.619 157.535 106.709 157.535C102.799 157.535 102.799 163.591 106.709 163.591Z" fill="#FEFEFE"/>
<path d="M110.68 160.301C114.59 160.301 114.59 154.244 110.68 154.244C106.77 154.244 106.77 160.301 110.68 160.301Z" fill="#FEFEFE"/>
<path d="M105.392 163.591C109.302 163.591 109.302 157.535 105.392 157.535C101.482 157.535 101.482 163.591 105.392 163.591Z" fill="#FEFEFE"/>
<path d="M113.84 163.935C118.581 166.902 120.749 173.04 123.119 177.805C124.497 180.57 125.915 183.074 125.875 186.223C125.855 187.818 125.652 189.413 125.51 190.988C125.368 192.482 125.449 194.259 124.963 195.672L125.753 194.339L125.49 194.642L126.827 193.855L126.523 193.915H128.144L127.86 193.814L129.197 194.602L129.015 194.4L129.907 196.54V196.277C130.251 192.401 124.173 192.421 123.849 196.277C123.646 198.7 126.24 200.376 128.448 199.71C131.122 198.902 131.122 195.934 131.345 193.673C131.791 189.131 132.642 184.427 130.899 180.046C129.238 175.907 127.07 171.829 124.943 167.912C122.978 164.278 120.506 160.947 116.94 158.726C113.618 156.646 110.558 161.896 113.881 163.955L113.84 163.935Z" fill="#FEFEFE"/>
<path d="M123.261 195.268C127.171 195.268 127.171 189.211 123.261 189.211C119.351 189.211 119.351 195.268 123.261 195.268Z" fill="#FEFEFE"/>
<path d="M126.543 201.022L126.868 200.356C127.09 200.012 127.212 199.629 127.232 199.225C127.313 198.821 127.313 198.418 127.171 198.014C127.07 197.61 126.888 197.267 126.624 196.984C126.402 196.661 126.118 196.399 125.774 196.197L125.044 195.894C124.497 195.753 123.97 195.753 123.423 195.894L122.694 196.197C122.228 196.459 121.884 196.823 121.6 197.287L121.276 197.953C121.053 198.296 120.931 198.68 120.911 199.084C120.83 199.488 120.83 199.891 120.972 200.295C121.073 200.699 121.256 201.042 121.519 201.325C121.742 201.648 122.025 201.91 122.37 202.112L123.099 202.415C123.646 202.556 124.173 202.556 124.72 202.415L125.449 202.112C125.915 201.85 126.26 201.486 126.543 201.022Z" fill="#FEFEFE"/>
<path d="M192.733 214.387C186.614 199.185 165.787 196.177 151.423 196.883C143.643 197.267 143.582 209.38 151.423 208.997C157.237 208.714 162.788 208.613 168.4 210.349C171.845 211.419 179.442 213.721 181.002 217.597C183.879 224.744 195.65 221.615 192.733 214.367V214.387Z" fill="#FEFEFE"/>
<path d="M142.468 210.067C142.468 210.067 142.65 209.925 142.731 209.845L141.921 210.47C142.61 209.966 143.339 209.542 144.129 209.198L143.157 209.602C144.392 209.098 145.669 208.815 146.986 208.633L145.912 208.774C147.472 208.573 149.072 208.512 150.653 208.472C151.99 208.451 153.55 207.745 154.158 206.473C154.765 205.201 155.09 203.707 154.583 202.294C154.077 200.881 153.246 199.831 151.99 199.064C150.004 197.812 147.573 198.155 145.466 198.922C143.947 199.467 142.346 199.932 140.908 200.699C140.178 201.082 139.469 201.607 138.942 202.233C137.95 203.404 137.484 204.575 137.362 206.11C137.281 207.099 137.869 208.29 138.558 208.956C139.246 209.622 140.421 210.188 141.414 210.147C142.407 210.107 143.541 209.764 144.271 208.956C145 208.149 145.365 207.22 145.466 206.11V205.968C145.426 206.332 145.385 206.675 145.324 207.038C145.345 206.897 145.385 206.776 145.426 206.634L145.02 207.604C145.102 207.442 145.183 207.28 145.284 207.139L144.656 207.947C144.818 207.765 144.98 207.604 145.162 207.442L144.352 208.068C144.717 207.805 145.122 207.583 145.547 207.402L144.575 207.805C145.324 207.482 146.115 207.24 146.884 206.957C147.695 206.675 148.505 206.332 149.356 206.19L148.282 206.332C148.546 206.291 148.809 206.291 149.072 206.311L147.999 206.17C148.242 206.21 148.444 206.251 148.667 206.332L147.695 205.928C147.837 206.009 147.958 206.069 148.08 206.17L147.269 205.544C147.391 205.645 147.492 205.746 147.573 205.867L146.945 205.06C147.026 205.181 147.107 205.302 147.168 205.423L146.763 204.454C146.824 204.595 146.844 204.716 146.884 204.858L146.743 203.788C146.743 203.788 146.743 203.97 146.743 204.07L146.884 203C146.884 203 146.844 203.182 146.824 203.263L147.229 202.294L147.168 202.415L150.673 200.416C148.323 200.457 145.973 200.598 143.663 201.062C141.09 201.567 138.801 202.698 136.775 204.353C136.025 204.979 135.579 206.271 135.579 207.2C135.579 208.189 136.025 209.38 136.775 210.046C137.524 210.713 138.558 211.278 139.631 211.238C140.766 211.177 141.617 210.773 142.488 210.046L142.468 210.067Z" fill="#FEFEFE"/>
<path d="M138.821 212.772C144.028 212.772 144.048 204.696 138.821 204.696C133.594 204.696 133.594 212.772 138.821 212.772Z" fill="#FEFEFE"/>
<path d="M145.446 211.116H146.439C147.006 211.137 147.512 211.015 147.999 210.773C148.505 210.612 148.931 210.329 149.295 209.945C149.7 209.582 149.964 209.138 150.126 208.653C150.389 208.169 150.491 207.644 150.47 207.099L150.329 206.029C150.126 205.342 149.782 204.757 149.295 204.252L148.485 203.626C147.857 203.263 147.168 203.081 146.439 203.081H145.446C144.879 203.061 144.372 203.182 143.886 203.424C143.379 203.586 142.954 203.869 142.589 204.252C142.184 204.616 141.921 205.06 141.759 205.544C141.495 206.029 141.394 206.554 141.414 207.099L141.556 208.169C141.759 208.855 142.103 209.441 142.589 209.945L143.4 210.571C144.028 210.935 144.717 211.116 145.446 211.116Z" fill="#FEFEFE"/>
<path d="M150.754 205.241C156.224 201.991 163.092 201.708 168.745 204.717L167.934 198.377C168.826 197.448 168.927 198.256 168.319 197.933C167.772 197.63 166.314 197.852 165.665 197.832C164.024 197.771 162.383 197.691 160.742 197.63C156.001 197.448 155.475 204.171 159.668 205.564C162.464 206.493 165.301 207.321 168.178 207.987C170.771 208.593 173.465 208.896 176.038 209.643C180.111 210.814 182.076 215.134 183.697 218.667C184.608 220.646 187.485 221.13 189.248 220.121C191.294 218.93 191.618 216.588 190.707 214.589C188.458 209.683 185.398 204.797 180.212 202.597C177.416 201.406 174.357 201.103 171.399 200.436C168.157 199.71 164.956 198.821 161.816 197.771L160.742 205.706C163.133 205.807 165.544 205.908 167.934 205.988C170.082 206.069 172.108 205.686 173.648 204.091C175.39 202.274 175.187 199.003 172.837 197.751C164.673 193.39 154.664 193.532 146.682 198.276C142.204 200.941 146.277 207.927 150.774 205.241H150.754Z" fill="#FEFEFE"/>
<path d="M190.707 220.868C190.018 218.324 188.336 216.305 186.29 214.71C184.244 213.115 181.893 211.48 179.624 209.966C175.208 206.998 170.528 204.393 165.402 202.879C163.376 202.274 160.904 203.606 160.418 205.706C159.932 207.805 161.066 210.026 163.254 210.672C164.328 210.995 165.382 211.379 166.435 211.783C167.104 212.045 165.605 211.399 166.739 211.924C166.982 212.025 167.225 212.146 167.468 212.247C167.955 212.469 168.421 212.711 168.887 212.954C170.953 214.024 172.939 215.235 174.884 216.507C176.829 217.779 178.611 219.051 180.435 220.363C180.617 220.484 180.799 220.625 180.982 220.767C181.468 221.11 180.516 220.363 180.982 220.767C181.367 221.09 181.772 221.413 182.116 221.776C182.278 221.938 182.42 222.119 182.562 222.261C182.319 222.039 182.299 221.857 182.522 222.22C182.522 222.22 183.048 223.109 182.785 222.604C182.542 222.14 182.886 222.967 182.906 223.048C183.453 225.087 185.824 226.541 187.89 225.875C189.957 225.208 191.314 223.089 190.727 220.908L190.707 220.868Z" fill="#FEFEFE"/>
<path d="M162.566 201.971C167.752 201.971 172.574 203.99 176.93 207.119C180.941 210.006 184.73 214.407 187.688 218.324C189.005 220.06 191.193 220.969 193.239 219.777C194.961 218.768 196.015 216.002 194.698 214.246C186.837 203.869 176.525 193.875 162.566 193.895C160.377 193.895 158.514 195.753 158.514 197.933C158.514 200.113 160.377 201.971 162.566 201.971Z" fill="#FEFEFE"/>
<path d="M190.119 221.675C195.326 221.675 195.346 213.6 190.119 213.6C184.892 213.6 184.892 221.675 190.119 221.675Z" fill="#FEFEFE"/>
<path d="M186.817 226.622C192.023 226.622 192.044 218.546 186.817 218.546C181.59 218.546 181.59 226.622 186.817 226.622Z" fill="#FEFEFE"/>
<path d="M192.104 218.041C197.311 218.041 197.332 209.966 192.104 209.966C186.877 209.966 186.877 218.041 192.104 218.041Z" fill="#FEFEFE"/>
<path d="M122.836 232.315C123.018 233.021 123.099 233.365 123.119 234.092L129.218 230.599C128.731 230.256 128.164 230.034 127.597 229.892C124.416 229.024 120.891 232.86 123.018 235.828C127.496 242.086 133.857 246.084 140.887 249.052C148.485 252.262 156.812 255.25 165.199 254.139C167.124 253.877 168.441 253.029 169.109 251.171C169.211 250.909 169.778 250.747 169.92 250.687C173.708 248.991 171.662 243.136 167.874 243.156C160.377 243.217 153.347 240.047 146.499 237.322C142.974 235.929 139.489 234.495 136.045 232.9C134.627 232.234 132.642 231.588 131.467 230.498C130.373 229.488 129.724 227.893 128.752 226.743C127.354 225.067 124.477 225.289 123.018 226.743C121.357 228.398 121.6 230.781 123.018 232.456C124.092 233.748 124.679 235.283 125.996 236.433C127.556 237.786 129.38 238.654 131.223 239.543C135.275 241.46 139.429 243.156 143.582 244.832C151.382 247.941 159.283 251.313 167.853 251.252L165.807 243.722C163.518 244.751 162.1 246.73 161.269 249.031L165.179 246.064C157.987 247.012 150.997 244.59 144.433 241.844C139.044 239.603 133.472 236.575 129.988 231.75L125.409 237.685L125.085 237.584C127.617 239.341 131.264 236.999 131.183 234.092C131.142 232.759 130.96 231.447 130.616 230.155C129.258 225.148 121.438 227.268 122.795 232.295L122.836 232.315Z" fill="#FEFEFE"/>
<path d="M170.386 247.416C172.999 247.416 172.999 243.378 170.386 243.378C167.772 243.378 167.772 247.416 170.386 247.416Z" fill="#FEFEFE"/>
<path d="M126.3 229.855C128.914 229.855 128.914 225.817 126.3 225.817C123.687 225.817 123.687 229.855 126.3 229.855Z" fill="#FEFEFE"/>
<path d="M123.059 284.221C126.219 286.361 129.36 288.905 132.865 290.479C136.916 292.296 141.151 292.256 145.365 290.964C148.991 289.854 152.537 288.279 156.062 286.825C159.587 285.372 162.788 283.615 165.179 280.405C166.496 278.649 165.463 275.903 163.72 274.873C161.654 273.662 159.486 274.57 158.169 276.327C156.852 278.083 154.218 278.931 152.253 279.698C149.275 280.89 146.297 282.222 143.217 283.171C140.543 283.979 138.132 284.201 135.62 282.828C132.662 281.213 129.947 279.113 127.171 277.235C125.368 276.004 122.674 276.892 121.62 278.689C120.445 280.688 121.256 282.989 123.079 284.221H123.059Z" fill="#FEFEFE"/>
<path d="M162.505 276.428L162.971 278.003C163.032 278.265 163.153 278.487 163.335 278.689C163.477 278.911 163.66 279.073 163.903 279.214C164.126 279.355 164.389 279.436 164.652 279.456C164.916 279.517 165.199 279.497 165.463 279.416L165.949 279.214C166.253 279.032 166.496 278.79 166.678 278.487L166.881 278.003C166.982 277.639 166.982 277.296 166.881 276.933L166.415 275.358C166.354 275.095 166.233 274.873 166.05 274.671C165.908 274.449 165.726 274.288 165.483 274.146C165.26 274.005 164.997 273.924 164.733 273.904C164.47 273.844 164.186 273.864 163.923 273.945L163.437 274.146C163.133 274.328 162.89 274.57 162.707 274.873L162.505 275.358C162.404 275.721 162.404 276.064 162.505 276.428Z" fill="#FEFEFE"/>
<path d="M124.558 278.911C127.171 278.911 127.171 274.873 124.558 274.873C121.944 274.873 121.944 278.911 124.558 278.911Z" fill="#FEFEFE"/>
<path d="M126.017 279.214C128.63 279.214 128.63 275.176 126.017 275.176C123.403 275.176 123.403 279.214 126.017 279.214Z" fill="#FEFEFE"/>
</g>
<defs>
<clipPath id="clip0_248_165">
<rect width="304" height="329" fill="white"/>
</clipPath>
</defs>
</svg>
